<svg width="9" height="14" viewBox="0 0 9 14" fill="none" xmlns="http://www.w3.org/2000/svg">
<path fill-rule="evenodd" clip-rule="evenodd" d="M7.77972 6.22348L1.75642 0.293485C1.56225 0.105361 1.30151 3.04607e-05 1.02999 3.04726e-05C0.758466 3.04844e-05 0.497726 0.105361 0.303561 0.293485C0.207465 0.386616 0.13111 0.497839 0.0789814 0.620622C0.0268523 0.743404 -5.73129e-07 0.875274 -5.67306e-07 1.00848C-5.61483e-07 1.1417 0.0268523 1.27357 0.0789814 1.39635C0.13111 1.51913 0.207465 1.63035 0.303561 1.72348L5.66097 6.99348L0.313651 12.2635C0.217555 12.3566 0.1412 12.4678 0.0890712 12.5906C0.0369421 12.7134 0.0100892 12.8453 0.0100892 12.9785C0.0100892 13.1117 0.0369422 13.2436 0.0890712 13.3663C0.1412 13.4891 0.217555 13.6004 0.313651 13.6935C0.507816 13.8816 0.768556 13.9869 1.04008 13.9869C1.3116 13.9869 1.57234 13.8816 1.76651 13.6935L7.77972 7.77348C7.97052 7.55961 8.07583 7.28397 8.07583 6.99848C8.07583 6.713 7.97052 6.43736 7.77972 6.22348Z" fill="white"/>
</svg>
