<svg width="18" height="18" viewBox="0 0 18 18" fill="none" xmlns="http://www.w3.org/2000/svg">
<path fill-rule="evenodd" clip-rule="evenodd" d="M17.6631 2.03365C17.8817 1.80733 18.0027 1.50421 18 1.18957C17.9972 0.874937 17.871 0.573962 17.6485 0.351472C17.426 0.128982 17.1251 0.00277947 16.8104 4.5363e-05C16.4958 -0.00268874 16.1927 0.118265 15.9663 0.336855L9.01474 7.28845L2.06315 0.336855C1.83682 0.118265 1.5337 -0.00268874 1.21906 4.5363e-05C0.904428 0.00277947 0.603453 0.128982 0.380964 0.351472C0.158474 0.573962 0.0322708 0.874937 0.0295367 1.18957C0.0268026 1.50421 0.147756 1.80733 0.366346 2.03365L7.31795 8.98525L0.366346 15.9369C0.251734 16.0475 0.160315 16.18 0.0974242 16.3264C0.0345334 16.4728 0.00142989 16.6302 4.53085e-05 16.7896C-0.00133927 16.9489 0.0290225 17.1069 0.0893596 17.2544C0.149697 17.4019 0.2388 17.5359 0.351472 17.6485C0.464143 17.7612 0.598125 17.8503 0.745601 17.9106C0.893077 17.971 1.05109 18.0013 1.21043 18C1.36976 17.9986 1.52723 17.9655 1.67363 17.9026C1.82004 17.8397 1.95245 17.7483 2.06315 17.6337L9.01474 10.6821L15.9663 17.6337C16.1927 17.8522 16.4958 17.9732 16.8104 17.9705C17.1251 17.9677 17.426 17.8415 17.6485 17.619C17.871 17.3965 17.9972 17.0956 18 16.7809C18.0027 16.4663 17.8817 16.1632 17.6631 15.9369L10.7115 8.98525L17.6631 2.03365Z" fill="#727272"/>
</svg>
