<svg width="9" height="13" viewBox="0 0 9 13" fill="none" xmlns="http://www.w3.org/2000/svg">
<path fill-rule="evenodd" clip-rule="evenodd" d="M0.329992 7.21567L7.04258 12.7273C7.25897 12.9021 7.54954 13 7.85214 13C8.15474 13 8.44531 12.9021 8.6617 12.7273C8.76879 12.6407 8.85388 12.5373 8.91198 12.4232C8.97007 12.3091 9 12.1865 9 12.0627C9 11.9389 8.97007 11.8163 8.91198 11.7022C8.85388 11.5881 8.76879 11.4847 8.6617 11.3982L2.6912 6.5L8.65046 1.60185C8.75755 1.51529 8.84264 1.41191 8.90074 1.29779C8.95883 1.18367 8.98876 1.06111 8.98876 0.937298C8.98876 0.813486 8.95883 0.690922 8.90074 0.576802C8.84264 0.462683 8.75755 0.359308 8.65046 0.272748C8.43407 0.0978986 8.14349 -3.74391e-08 7.8409 -5.0666e-08C7.5383 -6.38929e-08 7.24772 0.0978985 7.03134 0.272748L0.329992 5.77504C0.117365 5.97382 -2.72322e-07 6.23001 -2.83921e-07 6.49535C-2.95519e-07 6.7607 0.117365 7.01688 0.329992 7.21567Z" fill="#0A0A0A"/>
</svg>
