<svg width="6" height="10" viewBox="0 0 6 10" fill="none" xmlns="http://www.w3.org/2000/svg">
<path fill-rule="evenodd" clip-rule="evenodd" d="M5.78001 4.44949L1.30494 0.209806C1.16069 0.0753068 0.96697 -3.59765e-08 0.765239 -2.84711e-08C0.563508 -2.09656e-08 0.369789 0.0753069 0.225533 0.209806C0.154138 0.276391 0.0974094 0.355909 0.0586798 0.443694C0.0199501 0.531479 -4.81414e-07 0.625758 -4.76523e-07 0.720999C-4.71632e-07 0.816238 0.0199501 0.910519 0.0586798 0.998303C0.0974095 1.08609 0.154138 1.16561 0.225533 1.23219L4.20586 5L0.23303 8.76781C0.161634 8.83439 0.104906 8.91391 0.0661761 9.0017C0.0274464 9.08948 0.00749587 9.18376 0.00749588 9.279C0.00749588 9.37424 0.0274465 9.46852 0.0661762 9.55631C0.104906 9.64409 0.161634 9.72361 0.23303 9.79019C0.377286 9.92469 0.571005 10 0.772735 10C0.974466 10 1.16818 9.92469 1.31244 9.79019L5.78001 5.55766C5.92176 5.40475 6 5.20769 6 5.00357C6 4.79946 5.92176 4.6024 5.78001 4.44949Z" fill="white"/>
</svg>
