<svg width="15" height="21" viewBox="0 0 15 21" fill="none" xmlns="http://www.w3.org/2000/svg">
<path fill-rule="evenodd" clip-rule="evenodd" d="M10.5508 9.73L6.58706 5.915C6.37274 5.71156 6.08963 5.5983 5.79545 5.5983C5.50128 5.5983 5.21817 5.71156 5.00385 5.915C4.89969 6.01623 4.81684 6.13763 4.76024 6.27194C4.70365 6.40625 4.67448 6.55071 4.67448 6.69667C4.67448 6.84262 4.70365 6.98708 4.76024 7.12139C4.81684 7.2557 4.89969 7.37711 5.00385 7.47833L6.96841 9.46167H1.15562C0.846942 9.47365 0.554682 9.60516 0.339501 9.82892C0.12432 10.0527 0.00274219 10.3515 0 10.6633C0.00282139 10.8115 0.0353432 10.9575 0.0956025 11.0926C0.155862 11.2277 0.242609 11.349 0.350608 11.4493C0.458608 11.5496 0.58562 11.6268 0.723978 11.6762C0.862337 11.7256 1.00917 11.7462 1.15562 11.7367H6.95686L4.9923 13.6733C4.89092 13.7713 4.81025 13.8891 4.75513 14.0194C4.70002 14.1497 4.6716 14.29 4.6716 14.4317C4.6716 14.5734 4.70002 14.7136 4.75513 14.8439C4.81025 14.9743 4.89092 15.092 4.9923 15.19C5.20721 15.3968 5.49275 15.5122 5.78968 15.5122C6.0866 15.5122 6.37214 15.3968 6.58706 15.19L10.5508 11.41C10.7588 11.1853 10.8745 10.8892 10.8745 10.5817C10.8745 10.2741 10.7588 9.97806 10.5508 9.75333V9.73ZM1.42142 0V1.91333H13.1741L13.1048 19.1333H1.36364V21H15V0H1.44453H1.42142Z" fill="#171717"/>
</svg>
