<svg width="19" height="19" viewBox="0 0 19 19" fill="none" xmlns="http://www.w3.org/2000/svg">
<path d="M14.8438 7.71875C14.8438 6.3015 14.2807 4.9423 13.2786 3.94015C12.2765 2.938 10.9173 2.375 9.5 2.375C8.08275 2.375 6.72355 2.938 5.7214 3.94015C4.71925 4.9423 4.15625 6.3015 4.15625 7.71875C4.15625 9.91088 5.91019 12.768 9.5 16.1904C13.0898 12.768 14.8438 9.91088 14.8438 7.71875ZM9.5 17.8125C5.14544 13.8546 2.96875 10.4892 2.96875 7.71875C2.96875 5.98656 3.65686 4.32531 4.88171 3.10046C6.10656 1.87561 7.76781 1.1875 9.5 1.1875C11.2322 1.1875 12.8934 1.87561 14.1183 3.10046C15.3431 4.32531 16.0312 5.98656 16.0312 7.71875C16.0312 10.4892 13.8546 13.8546 9.5 17.8125Z" fill="#161616"/>
<path d="M9.5 8.3125C9.81494 8.3125 10.117 8.18739 10.3397 7.96469C10.5624 7.74199 10.6875 7.43994 10.6875 7.125C10.6875 6.81006 10.5624 6.50801 10.3397 6.28531C10.117 6.06261 9.81494 5.9375 9.5 5.9375C9.18506 5.9375 8.88301 6.06261 8.66031 6.28531C8.43761 6.50801 8.3125 6.81006 8.3125 7.125C8.3125 7.43994 8.43761 7.74199 8.66031 7.96469C8.88301 8.18739 9.18506 8.3125 9.5 8.3125ZM9.5 9.5C8.87011 9.5 8.26602 9.24978 7.82062 8.80438C7.37522 8.35898 7.125 7.75489 7.125 7.125C7.125 6.49511 7.37522 5.89102 7.82062 5.44562C8.26602 5.00022 8.87011 4.75 9.5 4.75C10.1299 4.75 10.734 5.00022 11.1794 5.44562C11.6248 5.89102 11.875 6.49511 11.875 7.125C11.875 7.75489 11.6248 8.35898 11.1794 8.80438C10.734 9.24978 10.1299 9.5 9.5 9.5ZM15.9125 13.0625L17.8125 17.8125H12.4688V16.625H6.53125V17.8125H1.1875L3.0875 13.0625H15.9125ZM14.6336 13.0625H4.36644L2.94144 16.625H16.0586L14.6336 13.0625Z" fill="#161616"/>
</svg>
